<svg id="ELEMENTS" xmlns="http://www.w3.org/2000/svg" viewBox="0 0 256 256">
  <defs>
    <style>
      .cls-1 {
        fill: #fff;
      }
    </style>
  </defs>
  <path class="cls-1" d="M216.1,47.43a209.45,209.45,0,0,0-52.38-16.14A130.62,130.62,0,0,0,157,45.07a194.09,194.09,0,0,0-58,0,138,138,0,0,0-6.85-13.78A207.84,207.84,0,0,0,39.68,47.51,214,214,0,0,0,2.11,192a209.73,209.73,0,0,0,64.27,32.45,154.41,154.41,0,0,0,13.78-22.29A140.06,140.06,0,0,1,58.5,192c1.82-1.34,3.55-2.76,5.2-4.1a150.64,150.64,0,0,0,128.61,0,66.39,66.39,0,0,0,5.28,4.1,124.6,124.6,0,0,1-21.74,10.39,150.57,150.57,0,0,0,13.78,22.29A209.1,209.1,0,0,0,253.9,192,213.75,213.75,0,0,0,216.1,47.43ZM85.83,163.2A24.41,24.41,0,0,1,63,137.61a24.35,24.35,0,0,1,22.84-25.68,24.18,24.18,0,0,1,22.85,25.44s0,.11,0,.16A24.41,24.41,0,0,1,85.83,163.2Zm84.35,0a24.41,24.41,0,0,1-22.84-25.59,24.34,24.34,0,0,1,22.84-25.68,24.18,24.18,0,0,1,22.93,25.37c0,.08,0,.15,0,.23A24.41,24.41,0,0,1,170.18,163.2Z"/>
</svg>
