<?xml version="1.0" encoding="utf-8"?>
<!-- Generator: Adobe Illustrator 26.0.1, SVG Export Plug-In . SVG Version: 6.00 Build 0)  -->
<svg version="1.1" id="ELEMENTS" xmlns="http://www.w3.org/2000/svg" xmlns:xlink="http://www.w3.org/1999/xlink" x="0px" y="0px"
	 viewBox="0 0 256 256" style="enable-background:new 0 0 256 256;" xml:space="preserve">
<style type="text/css">
	.st0{fill:#FFFFFF;}
</style>
<g>
	<path class="st0" d="M195.2,46.3c-8.3,0-14.9,6.7-14.9,14.9s6.7,14.9,14.9,14.9c8.3,0,14.9-6.7,14.9-14.9S203.5,46.3,195.2,46.3
		L195.2,46.3z"/>
	<path class="st0" d="M129.1,65.6c-34.5,0-62.5,28-62.5,62.5s28,62.5,62.5,62.5s62.5-28,62.5-62.5C191.6,93.6,163.6,65.6,129.1,65.6
		z M129.1,168.1c-22.1,0-40-17.9-40-40s17.9-40,40-40c22.1,0,40,17.9,40,40l0,0C169.1,150.2,151.2,168.1,129.1,168.1z"/>
	<path class="st0" d="M178.7,255H77.3C35.2,254.9,1.1,220.8,1,178.7V77.3C1.1,35.2,35.2,1.1,77.3,1h101.5
		c42.1,0.1,76.2,34.2,76.3,76.3v101.5C254.9,220.8,220.8,254.9,178.7,255z M77.5,25.1c-28.9,0-52.4,23.5-52.4,52.4v101.5
		c0.3,28.7,23.7,51.8,52.4,51.8h101.5c28.9,0,52.4-23.5,52.4-52.4c0,0,0,0,0,0V76.9c-0.4-28.8-23.8-51.9-52.6-51.8H77.5z"/>
</g>
</svg>
