<svg id="Layer_1" data-name="Layer 1" xmlns="http://www.w3.org/2000/svg" width="256" height="256" viewBox="0 0 256 256">
  <defs>
    <style>
      .cls-1 {
        fill: #fff;
      }
    </style>
  </defs>
  <path class="cls-1" d="M255,129.71a27.87,27.87,0,0,0-47.12-19.11,135.66,135.66,0,0,0-73.43-23.46l12.38-59.49,40.81,8.58a19.1,19.1,0,1,0,2.51-11.66l-46.74-9.34a5.91,5.91,0,0,0-7.06,4.51v.09L122.27,86A136.57,136.57,0,0,0,47.9,109.47,27.83,27.83,0,1,0,9.79,150a27.06,27.06,0,0,0,7.49,5,61.82,61.82,0,0,0,0,8.39c0,42.71,49.77,77.45,111.15,77.45s111.16-34.7,111.16-77.45a61.82,61.82,0,0,0,0-8.39A27.84,27.84,0,0,0,255,129.71ZM64.3,148.81a19.11,19.11,0,1,1,19.1,19.1A19.14,19.14,0,0,1,64.3,148.81Zm110.78,52.43A73.24,73.24,0,0,1,128,215.93a73.24,73.24,0,0,1-47.12-14.69A5.16,5.16,0,0,1,88.1,194a62.31,62.31,0,0,0,39.67,12,62.77,62.77,0,0,0,39.86-11.62,5.33,5.33,0,0,1,7.45,7.63h0v-.75Zm-3.42-32.66a13.52,13.52,0,1,1,.81.71h-.95Z"/>
</svg>
