<?xml version="1.0" encoding="utf-8"?>
<!-- Generator: Adobe Illustrator 26.0.1, SVG Export Plug-In . SVG Version: 6.00 Build 0)  -->
<svg version="1.1" id="ELEMENTS" xmlns="http://www.w3.org/2000/svg" xmlns:xlink="http://www.w3.org/1999/xlink" x="0px" y="0px"
	 viewBox="0 0 256 256" style="enable-background:new 0 0 256 256;" xml:space="preserve">
<style type="text/css">
	.st0{fill:#FFFFFF;}
</style>
<path class="st0" d="M16.6,114.4c0,0,112.4-46.1,151.3-62.3c15-6.5,65.6-27.3,65.6-27.3s23.4-9,21.4,13c-0.6,9-5.8,40.9-11,75.3
	c-7.8,48.7-16.2,101.9-16.2,101.9s-1.3,15-12.3,17.6c-11.1,2.6-29.3-9.1-32.5-11.8c-3.2-2.6-48.7-31.1-65.6-45.4
	c-5.7-3.7-7.3-11.4-3.5-17.1c1.1-1.6,2.5-3,4.2-4c23.4-21.4,51.3-48,68.1-64.9c7.9-7.8,15.6-26-16.9-3.9
	c-46.1,31.8-91.6,61.7-91.6,61.7c-9.5,4.2-20.2,4.4-29.8,0.6c-19.5-5.8-42.3-13.6-42.3-13.6S-10,124.8,16.6,114.4z"/>
</svg>
