<?xml version="1.0" encoding="utf-8"?>
<!-- Generator: Adobe Illustrator 26.0.1, SVG Export Plug-In . SVG Version: 6.00 Build 0)  -->
<svg version="1.1" id="ELEMENTS" xmlns="http://www.w3.org/2000/svg" xmlns:xlink="http://www.w3.org/1999/xlink" x="0px" y="0px"
	 viewBox="0 0 256 256" style="enable-background:new 0 0 256 256;" xml:space="preserve">
<style type="text/css">
	.st0{fill:#FFFFFF;}
</style>
<path class="st0" d="M252.2,49.3c-8.2,3.5-16.8,5.9-25.6,7.3c4.1-0.7,10.2-8.1,12.6-11.2c3.8-4.6,6.6-9.8,8.5-15.5
	c0-0.5,0-0.9,0-1.3c-0.4-0.2-0.9-0.2-1.3,0c-9.6,5.1-19.8,9-30.4,11.7c-0.7,0.2-1.4,0-1.9-0.5c-0.8-1-1.7-1.9-2.7-2.7
	c-4.3-3.9-9.3-7-14.6-9.3c-7.2-2.9-14.9-4.1-22.6-3.6c-7.5,0.5-14.8,2.6-21.5,6.1c-6.6,3.5-12.5,8.3-17.3,14.1
	c-4.9,6.1-8.4,13.1-10.3,20.6c-1.6,7.2-1.8,14.6-0.6,21.8c0,1.2,0,1.4-1,1.2C82,81.8,47.4,66.8,19.3,34.9c-1.2-1.4-1.9-1.4-2.8,0
	c-12.3,18.7-6.3,47.9,9.3,62.5c2.1,2,4.2,3.9,6.4,5.7c-7-0.6-13.9-2.5-20.1-5.7c-1.2-0.7-1.9,0-2,1c-0.2,2-0.2,4,0,6.1
	c2.5,19.1,15.1,35.4,32.9,42.6c2.2,0.9,4.4,1.6,6.7,2.1c-6.5,1.3-13.2,1.5-19.8,0.6c-1.4,0-2,0.5-1.4,1.9
	c6.9,18,22.6,31.1,41.5,34.7c1.9,0,3.7,0,5.6,0.7l0,0c-4.7,7.1-20.8,12.4-28,15c-13.8,4.9-28.4,6.8-43,5.5c-2.3,0-2.8,0-3.5,0
	s0,0.9,0.7,1.6c2.9,1.9,6,3.6,9.3,5.3c9.1,4.8,18.8,8.7,28.7,11.5c51.8,14.3,110,3.7,149.3-34.8c30.5-30.3,41.1-72,41.1-113.8
	c0-1.7,2-2.6,3.1-3.5c7.8-6,14.6-13.1,20.2-21.1c0.9-1.1,1.3-2.6,1.3-4l0,0C253.2,48.7,253.2,48.8,252.2,49.3z"/>
</svg>
