<svg id="Layer_1" data-name="Layer 1" xmlns="http://www.w3.org/2000/svg" xmlns:xlink="http://www.w3.org/1999/xlink" width="3000" height="385" viewBox="0 0 3000 385">
  <defs>
    <style>
      .cls-1 {
        fill: #22143d;
      }

      .cls-2 {
        fill: url(#linear-gradient);
      }

      .cls-3 {
        fill: url(#linear-gradient-2);
      }
    </style>
    <linearGradient id="linear-gradient" x1="410.4" y1="355.45" x2="410.4" y2="56.45" gradientUnits="userSpaceOnUse">
      <stop offset="0" stop-color="#a726c1"/>
      <stop offset="0.88" stop-color="#813cdf"/>
      <stop offset="1" stop-color="#7b3fe4"/>
    </linearGradient>
    <linearGradient id="linear-gradient-2" x1="321.76" y1="115.55" x2="359.28" y2="180.54" xlink:href="#linear-gradient"/>
  </defs>
  <g id="_03" data-name="03">
    <g>
      <path class="cls-1" d="M891.86,52.44q9.54,16.5,21.27,40.36T937,142.93q12.13,26.26,24.08,53.38T983,246.44q10-23,21.7-50.13t23.87-53.38q12.15-26.25,23.87-50.13t21.27-40.36H1123q4,33,7.51,70.09t6.4,75.95q2.88,38.85,5.31,78.12t4.2,76.6h-53.81q-1.77-52.5-4.21-108.06t-7.29-107.64q-4.78,10-11.29,23.87t-13.89,30.17q-7.38,16.28-15,33.63t-14.76,33.64Q1019,275.09,1013,289.19t-10.42,24.08H961.74q-4.35-10-10.42-24.3t-13.24-30.6q-7.16-16.27-14.75-33.63t-15-33.42q-7.38-16-13.88-30.16T883.18,137.5q-4.87,52.08-7.3,107.64t-4.2,108.06H817.86q1.77-37.32,4.2-77.25t5.3-79.2q2.88-39.28,6.41-76.17t7.52-68.14Z"/>
      <path class="cls-1" d="M1205.42,240.8q0-30,8.9-52.52T1238,150.74a98,98,0,0,1,33.85-22.57,104.88,104.88,0,0,1,39.06-7.59q46.88,0,73.13,29.08t26.26,86.8c0,2.89-.08,6.15-.22,9.76s-.37,6.88-.65,9.77H1259.67q2.16,27.33,19.31,42.31t49.7,15a163,163,0,0,0,34.93-3.47q15.84-3.46,25-7.38l6.94,43a83.3,83.3,0,0,1-11.93,4.56,168.86,168.86,0,0,1-17.36,4.34q-9.77,1.95-21,3.25a200.17,200.17,0,0,1-23,1.3q-30,0-52.08-8.89t-36.46-24.74a101.36,101.36,0,0,1-21.27-37.32A152.43,152.43,0,0,1,1205.42,240.8Zm152.33-23.44a69.15,69.15,0,0,0-3-20.61,49.73,49.73,0,0,0-8.9-16.93,42.06,42.06,0,0,0-14.32-11.28q-8.48-4.12-20.18-4.13a47,47,0,0,0-21.27,4.56,48.52,48.52,0,0,0-15.41,11.93,54.76,54.76,0,0,0-9.76,16.93,91.64,91.64,0,0,0-4.78,19.53Z"/>
      <path class="cls-1" d="M1474.07,66.33l52.51-8.68v68.57h80.72v43.83h-80.72V262.5q0,27.33,8.68,39.06t29.51,11.71a96.43,96.43,0,0,0,25.39-3,168.9,168.9,0,0,0,17.58-5.65l8.68,41.67a198.57,198.57,0,0,1-23.87,8q-14.76,4.11-34.72,4.12-24.32,0-40.58-6.51T1491.43,333q-9.56-12.36-13.46-29.94a186.35,186.35,0,0,1-3.9-40.15Z"/>
      <path class="cls-1" d="M1744.45,120.58q26,0,43.83,6.51t28.43,18.23a68.31,68.31,0,0,1,15.19,28.42,139.09,139.09,0,0,1,4.56,36.68V348q-12.17,2.61-36.68,6.3a375.78,375.78,0,0,1-55.33,3.69,166.4,166.4,0,0,1-37.33-3.91q-16.92-3.9-28.86-12.59a59.23,59.23,0,0,1-18.66-22.56q-6.74-13.89-6.73-34.29,0-19.53,7.6-33a62.27,62.27,0,0,1,20.61-21.92,89.24,89.24,0,0,1,30.17-12.15,169.64,169.64,0,0,1,35.8-3.69,162.44,162.44,0,0,1,18.23,1.08,173.05,173.05,0,0,1,20.4,3.69V210a68.3,68.3,0,0,0-2.17-17.36,36.07,36.07,0,0,0-7.6-14.54,35.66,35.66,0,0,0-14.32-9.76q-8.89-3.47-22.35-3.47a198,198,0,0,0-33.42,2.6,146.57,146.57,0,0,0-24.74,6.08L1674.57,131q10-3.47,29.08-6.94A228.48,228.48,0,0,1,1744.45,120.58Zm4.34,195.73q24.3,0,36.89-2.6V255.55a103,103,0,0,0-12.59-2.6,117.11,117.11,0,0,0-18.23-1.3,120.74,120.74,0,0,0-17.57,1.3,54.87,54.87,0,0,0-16.06,4.77,29.22,29.22,0,0,0-11.5,9.77q-4.35,6.28-4.34,15.84,0,18.66,11.72,25.82T1748.79,316.31Z"/>
      <path class="cls-1" d="M1899,239.93a139.44,139.44,0,0,1,7.81-47.09,111.92,111.92,0,0,1,22.35-38,102.61,102.61,0,0,1,35.38-25.17q20.82-9.1,46.87-9.11a158.78,158.78,0,0,1,60.76,11.72l-11.29,43a119.89,119.89,0,0,0-20.61-6.51,111.21,111.21,0,0,0-24.52-2.6q-30.83,0-46.87,19.31t-16.06,54.47q0,33.85,15.19,53.6t51.21,19.74a134.38,134.38,0,0,0,26.47-2.6,125.2,125.2,0,0,0,22.57-6.51l7.38,43.4q-8.68,4.35-26.26,7.81a187,187,0,0,1-36.24,3.47q-29.07,0-50.56-8.89t-35.59-24.74a102.43,102.43,0,0,1-21-37.76A156.22,156.22,0,0,1,1899,239.93Z"/>
      <path class="cls-1" d="M2327.74,239.49q0,26.92-7.81,49.05t-22.13,37.75a99.51,99.51,0,0,1-34.51,24.31q-20.17,8.67-44.48,8.68t-44.27-8.68a100.06,100.06,0,0,1-34.29-24.31,111.3,111.3,0,0,1-22.35-37.75q-8-22.14-8-49.05t8-48.82a109.59,109.59,0,0,1,22.57-37.54A99.63,99.63,0,0,1,2175,129a111.22,111.22,0,0,1,43.84-8.46,112.79,112.79,0,0,1,44.05,8.46,97.08,97.08,0,0,1,34.5,24.09,111.52,111.52,0,0,1,22.35,37.54Q2327.73,212.59,2327.74,239.49Zm-53.81,0q0-33.84-14.54-53.6t-40.58-19.74q-26,0-40.58,19.74t-14.54,53.6q0,34.29,14.54,54.25t40.58,20q26,0,40.58-20T2273.93,239.49Z"/>
      <path class="cls-1" d="M2522.17,233.85q0-35.58-8.9-51.43t-33.2-15.84a156.28,156.28,0,0,0-19.09,1.3c-6.95.87-12.15,1.6-15.63,2.17V353.2h-52.51V133.6q15.18-4.33,39.71-8.25a330,330,0,0,1,51.86-3.9q23.45,0,38.41,6.07a74.54,74.54,0,0,1,25,16.06,103.47,103.47,0,0,1,12.15-7.38,126.36,126.36,0,0,1,16.49-7.16,151.15,151.15,0,0,1,19.31-5.42,98.65,98.65,0,0,1,20.62-2.17q26.46,0,43.62,7.59t26.9,21.27q9.77,13.66,13.46,33a226.76,226.76,0,0,1,3.69,42.32V353.2H2651.5V233.85q0-35.58-8.68-51.43t-33.41-15.84a69.16,69.16,0,0,0-23.87,4.12q-11.29,4.14-16.93,8a115.71,115.71,0,0,1,4.77,23,244.42,244.42,0,0,1,1.3,26V353.2h-52.51Z"/>
      <path class="cls-1" d="M2836,315.44q20.84,0,30.38-5t9.55-17.14q0-11.28-10.2-18.66T2832,258.59a264.27,264.27,0,0,1-26.25-11.07,89.39,89.39,0,0,1-20.62-13.67A55.94,55.94,0,0,1,2771.5,215q-5-11.06-5-27.12,0-31.24,23-49.26t62.5-18a192.16,192.16,0,0,1,38.19,3.69q18.23,3.69,27.34,7.16L2908,174a129.35,129.35,0,0,0-22.13-7.16,133.8,133.8,0,0,0-31.25-3.26q-16.07,0-26,5.43t-10,16.71a24.11,24.11,0,0,0,1.95,10,21.47,21.47,0,0,0,6.73,8,68.79,68.79,0,0,0,12.59,7.38,192.37,192.37,0,0,0,19.09,7.59,292.07,292.07,0,0,1,31.68,13.67,86,86,0,0,1,21.49,15.19,52.09,52.09,0,0,1,12.37,19.32q3.9,10.85,3.9,26,0,32.55-24.08,49.26t-68.79,16.7q-30,0-48.18-5t-25.6-8l9.11-43.83a232.78,232.78,0,0,0,28,9.11Q2815.12,315.45,2836,315.44Z"/>
    </g>
    <g id="_03-2" data-name="03">
      <path class="cls-2" d="M596.58,355.45a150,150,0,0,1-129.5-74.75l-.11,0a30.35,30.35,0,0,1,52.6-30.31h0a88.88,88.88,0,1,0,20.25-112.85L319.75,320.89a149.57,149.57,0,0,1-95.53,34.5c-82.42,0-149.48-67-149.48-149.46S141.8,56.45,224.22,56.45a148.52,148.52,0,0,1,54.63,10.28,30.35,30.35,0,0,1-22.16,56.5l-.05-.11a88.84,88.84,0,1,0,24.59,151.07L501,91v0a149.72,149.72,0,0,1,95.59-34.56C679,56.49,746.06,123.55,746.06,206S679,355.45,596.58,355.45Z"/>
      <path class="cls-3" d="M340.51,185.58A37.53,37.53,0,1,1,378,148,37.57,37.57,0,0,1,340.51,185.58Z"/>
    </g>
  </g>
</svg>
