<svg id="Layer_1" data-name="Layer 1" xmlns="http://www.w3.org/2000/svg" xmlns:xlink="http://www.w3.org/1999/xlink" width="2000" height="800" viewBox="0 0 2000 800">
  <defs>
    <style>
      .cls-1 {
        fill: #fff;
      }

      .cls-2 {
        fill: url(#linear-gradient);
      }
    </style>
    <linearGradient id="linear-gradient" x1="1737.33" y1="2166.06" x2="4842.89" y2="363.53" gradientUnits="userSpaceOnUse">
      <stop offset="0" stop-color="#a726c1"/>
      <stop offset="0.88" stop-color="#813cdf"/>
      <stop offset="1" stop-color="#7b3fe4"/>
    </linearGradient>
  </defs>
  <g id="_10" data-name="10">
    <g>
      <path class="cls-1" d="M151.32,501.87q8.64,14.94,19.26,36.55t21.61,45.39q11,23.78,21.81,48.34t19.85,45.39q9-20.84,19.65-45.39t21.62-48.34q11-23.77,21.61-45.39T316,501.87h44.62q3.6,29.86,6.8,63.47t5.8,68.77q2.6,35.17,4.8,70.74t3.81,69.37H333.08q-1.59-47.55-3.8-97.86t-6.61-97.46q-4.34,9-10.22,21.61t-12.57,27.31q-6.69,14.74-13.56,30.46T273,688.74q-6.49,14.73-12,27.51t-9.43,21.81H214.59q-3.93-9-9.43-22t-12-27.7q-6.5-14.75-13.37-30.46t-13.55-30.26q-6.69-14.53-12.58-27.32T143.46,578.9q-4.41,47.16-6.61,97.46t-3.8,97.86H84.31q1.6-33.79,3.81-70t4.8-71.72q2.6-35.56,5.8-69t6.8-61.7Z"/>
      <path class="cls-1" d="M425.43,672.43q0-27.12,8.06-47.55t21.42-34a88.45,88.45,0,0,1,30.65-20.43,94.84,94.84,0,0,1,35.37-6.88q42.45,0,66.22,26.33t23.78,78.6q0,3.93-.2,8.84t-.59,8.84H474.56q2,24.77,17.49,38.32t45,13.56a147.67,147.67,0,0,0,31.63-3.14q14.34-3.15,22.6-6.68l6.29,38.9a75,75,0,0,1-10.81,4.13A153.18,153.18,0,0,1,571,775.2Q562.19,777,552,778.15a183,183,0,0,1-20.83,1.18q-27.12,0-47.16-8.06t-33-22.4a91.7,91.7,0,0,1-19.26-33.8A138.05,138.05,0,0,1,425.43,672.43Zm138-21.22a62.6,62.6,0,0,0-2.75-18.67,45.12,45.12,0,0,0-8.06-15.33,38.3,38.3,0,0,0-13-10.22,41.47,41.47,0,0,0-18.27-3.73,42.55,42.55,0,0,0-19.26,4.13,43.72,43.72,0,0,0-13.95,10.81,49.22,49.22,0,0,0-8.84,15.32A82.52,82.52,0,0,0,475,651.21Z"/>
      <path class="cls-1" d="M658.88,514.44l47.55-7.86v62.1h73.1v39.69h-73.1v83.71q0,24.76,7.86,35.37T741,738.06a86.82,86.82,0,0,0,23-2.75,155,155,0,0,0,15.92-5.11l7.86,37.73a178.07,178.07,0,0,1-21.62,7.27q-13.36,3.74-31.43,3.73-22,0-36.75-5.89t-23.38-17.1q-8.65-11.21-12.19-27.12a168.94,168.94,0,0,1-3.53-36.35Z"/>
      <path class="cls-1" d="M893.89,563.57q23.58,0,39.69,5.89T959.32,586a61.83,61.83,0,0,1,13.76,25.74,126.06,126.06,0,0,1,4.13,33.21V769.5q-11,2.36-33.21,5.7a340.23,340.23,0,0,1-50.11,3.34,150.28,150.28,0,0,1-33.8-3.54q-15.33-3.54-26.13-11.39a53.69,53.69,0,0,1-16.9-20.44q-6.1-12.57-6.09-31,0-17.68,6.87-29.87a56.5,56.5,0,0,1,18.67-19.84,80.83,80.83,0,0,1,27.31-11,154.26,154.26,0,0,1,32.43-3.34,145.26,145.26,0,0,1,16.5,1,151.54,151.54,0,0,1,18.47,3.34v-7.86a61.5,61.5,0,0,0-2-15.72,31.42,31.42,0,0,0-19.85-22q-8.05-3.15-20.24-3.15A179.84,179.84,0,0,0,858.91,606a133.34,133.34,0,0,0-22.4,5.5L830.62,573q9-3.13,26.33-6.29A207,207,0,0,1,893.89,563.57Zm3.93,177.24q22,0,33.4-2.36V685.79a94.54,94.54,0,0,0-11.39-2.36,107.12,107.12,0,0,0-16.51-1.18,110.71,110.71,0,0,0-15.92,1.18,49.67,49.67,0,0,0-14.54,4.33,26.32,26.32,0,0,0-10.41,8.84q-3.93,5.7-3.93,14.34,0,16.9,10.61,23.39T897.82,740.81Z"/>
      <path class="cls-1" d="M1024,671.64a126,126,0,0,1,7.08-42.64,101.08,101.08,0,0,1,20.23-34.38,92.86,92.86,0,0,1,32-22.8q18.87-8.25,42.45-8.25a144,144,0,0,1,55,10.61l-10.22,38.91a107.66,107.66,0,0,0-18.67-5.9,100.42,100.42,0,0,0-22.2-2.36q-27.92,0-42.45,17.49t-14.54,49.32q0,30.66,13.76,48.54t46.37,17.88a122.25,122.25,0,0,0,24-2.36,112.42,112.42,0,0,0,20.43-5.89l6.68,39.3q-7.86,3.93-23.78,7.07a168.63,168.63,0,0,1-32.81,3.15q-26.34,0-45.78-8.06a86.86,86.86,0,0,1-32.23-22.4,92.72,92.72,0,0,1-19.06-34.19A141.51,141.51,0,0,1,1024,671.64Z"/>
      <path class="cls-1" d="M1402.43,671.25q0,24.38-7.07,44.41a98.31,98.31,0,0,1-20,34.19,90.11,90.11,0,0,1-31.24,22,100.88,100.88,0,0,1-40.28,7.86q-22,0-40.09-7.86a90.68,90.68,0,0,1-31-22,100.89,100.89,0,0,1-20.24-34.19q-7.28-20-7.27-44.41t7.27-44.21a99.44,99.44,0,0,1,20.44-34,90.39,90.39,0,0,1,31.24-21.81,100.65,100.65,0,0,1,39.7-7.66,102.16,102.16,0,0,1,39.89,7.66A88,88,0,0,1,1374.92,593a101.27,101.27,0,0,1,20.24,34Q1402.42,646.89,1402.43,671.25Zm-48.73,0q0-30.66-13.17-48.54t-36.74-17.88q-23.58,0-36.75,17.88t-13.16,48.54q0,31.05,13.16,49.13t36.75,18.07q23.58,0,36.74-18.07T1353.7,671.25Z"/>
      <path class="cls-1" d="M1568.66,666.14q0-32.22-8.05-46.57t-30.07-14.34a139.51,139.51,0,0,0-17.29,1.18q-9.43,1.17-14.15,2V774.22h-47.55V575.36a317.53,317.53,0,0,1,36-7.47,298.25,298.25,0,0,1,47-3.54q21.22,0,34.78,5.51a67.22,67.22,0,0,1,22.6,14.54,90.68,90.68,0,0,1,11-6.68,113.79,113.79,0,0,1,14.93-6.49,136.89,136.89,0,0,1,17.49-4.91,89.42,89.42,0,0,1,18.67-2q24,0,39.49,6.88t24.37,19.26q8.84,12.38,12.18,29.87a204.3,204.3,0,0,1,3.34,38.31V774.22h-47.55V666.14q0-32.22-7.86-46.57t-30.26-14.34A62.47,62.47,0,0,0,1626,609q-10.21,3.74-15.32,7.27a105.63,105.63,0,0,1,4.32,20.83,223.52,223.52,0,0,1,1.18,23.58V774.22h-47.56Z"/>
      <path class="cls-1" d="M1843,740q18.86,0,27.5-4.52t8.65-15.53q0-10.22-9.24-16.9t-30.45-14.54a239.14,239.14,0,0,1-23.78-10A81,81,0,0,1,1797,666.14a50.51,50.51,0,0,1-12.37-17.09q-4.53-10-4.52-24.57,0-28.29,20.82-44.6t56.6-16.31a174.56,174.56,0,0,1,34.58,3.34q16.5,3.35,24.76,6.48l-8.65,38.52a116.76,116.76,0,0,0-20-6.49,121.43,121.43,0,0,0-28.3-2.95q-14.53,0-23.57,4.92t-9,15.13a21.8,21.8,0,0,0,1.76,9,19.45,19.45,0,0,0,6.1,7.27,61.54,61.54,0,0,0,11.39,6.68,175.32,175.32,0,0,0,17.3,6.88,263.55,263.55,0,0,1,28.68,12.38A77.68,77.68,0,0,1,1912,678.52a47.07,47.07,0,0,1,11.2,17.49q3.54,9.82,3.53,23.58,0,29.48-21.81,44.6t-62.29,15.14q-27.12,0-43.62-4.52t-23.19-7.27l8.26-39.7a212.64,212.64,0,0,0,25.34,8.26A130.82,130.82,0,0,0,1843,740Z"/>
    </g>
    <path class="cls-1" d="M918.13,226.13a44,44,0,1,1,44-44A44,44,0,0,1,918.13,226.13Z"/>
    <path class="cls-1" d="M1218.1,425.13a175.77,175.77,0,0,1-151.7-87.56l-.13,0a35.56,35.56,0,0,1,61.62-35.51h.06a104.12,104.12,0,1,0,23.72-132.19L893.81,384.65A175.18,175.18,0,0,1,781.9,425.06c-96.55,0-175.1-78.53-175.1-175.09s78.55-175.1,175.1-175.1a173.84,173.84,0,0,1,64,12,35.54,35.54,0,0,1-26,66.18l-.07-.13A104.08,104.08,0,1,0,782.1,354a104.33,104.33,0,0,0,66.59-24.09l257.42-214.56,0,0a175.34,175.34,0,0,1,112-40.48c96.55,0,175.1,78.55,175.1,175.11S1314.65,425.13,1218.1,425.13Z"/>
  </g>
  <path class="cls-2" d="M4149,1806.57l767.19-442.93a132,132,0,0,0,65.81-114V363.77a132.08,132.08,0,0,0-65.81-114L4149-193.16a132.1,132.1,0,0,0-131.64,0L3250.13,249.76a132.08,132.08,0,0,0-65.82,114v1583l-537.92,310.54-537.93-310.54V1325.63l537.93-310.54,354.84,204.84V803.22l-289-166.88a132.14,132.14,0,0,0-131.64,0l-767.18,442.94a132,132,0,0,0-65.81,114v885.86a132.12,132.12,0,0,0,65.81,114l767.18,442.94a132.12,132.12,0,0,0,131.65,0l767.16-442.9a132.11,132.11,0,0,0,65.82-114V496.1l9.69-5.57,528.25-305,537.92,310.55v621.17l-537.92,310.55-354.32-204.55V1640l288.5,166.61A132.16,132.16,0,0,0,4149,1806.57Z"/>
</svg>
